<svg width="374" height="120" fill="none" xmlns="http://www.w3.org/2000/svg"><path d="M61.57 46.386h7.106c-1.908-6.139-5.034-10.637-8.64-11.968-.363-.036-.698-.094-1.061-.12v9.324a3.943 3.943 0 0 1 2.595 2.764Z" fill="#E95425"/><path d="M54.017 48.69h-7.683a46.949 46.949 0 0 0-1.298 10.066h11.631v-7.574a3.953 3.953 0 0 1-2.65-2.491Z" fill="#B93693"/><path d="M43.906 48.69h-9.74v10.066h8.566a50.85 50.85 0 0 1 1.174-10.065Z" fill="#7E52A0"/><path d="M45.77 68.364a3.94 3.94 0 0 1 3.635 2.763h7.27V61.062H45.043c.056 2.449.299 4.89.727 7.302Z" fill="#B93693"/><path d="M43.502 69a51.89 51.89 0 0 1-.781-7.92h-8.556v10.065h7.716A3.978 3.978 0 0 1 43.502 69Z" fill="#7E52A0"/><path d="M67.967 61.062h-8.992v10.065h10.333c.587-2.457.972-4.96 1.152-7.48a3.936 3.936 0 0 1-2.493-2.585Z" fill="#E95425"/><path d="M51.528 34.182h-12.18a5.182 5.182 0 0 0-5.183 5.185v7.019h10.33c1.552-5.408 4.016-9.684 7.033-12.204Z" fill="#7E52A0"/><path d="M47.762 75.665c2.068 5.339 5.11 9.091 8.541 9.957h.364v-12.19h-7.233a3.96 3.96 0 0 1-1.672 2.233Z" fill="#B93693"/><path d="M75.516 58.756h7.69a28.375 28.375 0 0 0-2.038-10.065H71.74a49.325 49.325 0 0 1 1.046 7.407 3.943 3.943 0 0 1 2.73 2.658Z" fill="#FAAB1E"/><path d="M56.67 43.575V34.21h-.363c-3.893.985-7.302 5.662-9.33 12.189h6.95a3.94 3.94 0 0 1 2.744-2.825Z" fill="#B93693"/><path d="M80.056 46.386c-3.003-5.426-8.026-9.193-14.651-10.993 2.431 2.585 4.427 6.374 5.75 10.992h8.9Z" fill="#FAAB1E"/><path d="M58.975 73.433v12.09c.363-.028.701-.083 1.054-.12 3.61-1.33 6.739-5.818 8.647-11.97h-9.701ZM70.468 56.17a46.414 46.414 0 0 0-1.16-7.48h-7.84a3.945 3.945 0 0 1-2.493 2.437v7.637h8.992a3.938 3.938 0 0 1 2.5-2.593Z" fill="#E95425"/><path d="M65.404 84.425c6.615-1.796 11.631-5.57 14.637-10.992h-8.886c-1.323 4.618-3.3 8.407-5.75 10.992Z" fill="#FAAB1E"/><path d="M41.86 73.433h-7.695v7.018a5.187 5.187 0 0 0 5.183 5.185h12.18c-2.465-2.058-4.558-5.301-6.088-9.37a3.942 3.942 0 0 1-3.58-2.833Z" fill="#7E52A0"/><path d="M72.786 63.72a49.325 49.325 0 0 1-1.046 7.407h9.413a28.47 28.47 0 0 0 2.054-10.065h-7.691a3.945 3.945 0 0 1-2.73 2.658Z" fill="#FAAB1E"/><path d="M115.9 48.764h7.178a19.94 19.94 0 0 1 4.954.6 11.165 11.165 0 0 1 4.093 1.934 9.464 9.464 0 0 1 2.777 3.48 11.969 11.969 0 0 1 1.025 5.193 10.83 10.83 0 0 1-.996 4.77 10.23 10.23 0 0 1-2.683 3.463 11.794 11.794 0 0 1-3.896 2.127 14.828 14.828 0 0 1-4.63.727H115.9V48.764Zm4.783 17.756h2.486a13.11 13.11 0 0 0 3.082-.345 6.542 6.542 0 0 0 2.468-1.15 5.516 5.516 0 0 0 1.643-2.109c.425-1.01.63-2.1.6-3.196a6.419 6.419 0 0 0-.6-2.85 5.684 5.684 0 0 0-1.61-1.997 7.077 7.077 0 0 0-2.381-1.182 10.301 10.301 0 0 0-2.867-.393h-2.824l.003 13.222ZM149.789 48.764h14.746v4.534h-9.963v4.157h9.417v4.53h-9.417v4.535h10.522v4.535h-15.305V48.764ZM178.928 48.764h14.567v4.534h-9.784v4.535h9.046v4.53h-9.046v8.692h-4.783V48.764ZM208.582 48.764h8.407a14.588 14.588 0 0 1 3.14.33 7.432 7.432 0 0 1 2.61 1.091 5.455 5.455 0 0 1 1.766 2.088 7.172 7.172 0 0 1 .662 3.272 6.664 6.664 0 0 1-1.199 4 5.352 5.352 0 0 1-3.497 2.091l5.521 9.415h-5.724l-4.54-8.91h-2.363v8.91h-4.783V48.764Zm4.783 9.225h2.824c.429 0 .884 0 1.367-.047a4.26 4.26 0 0 0 1.301-.284c.383-.15.717-.401.967-.727.272-.42.4-.916.364-1.415a2.364 2.364 0 0 0-.338-1.352 2.245 2.245 0 0 0-.858-.771 3.691 3.691 0 0 0-1.196-.364 9.705 9.705 0 0 0-1.319-.095h-3.13l.018 5.055ZM291.055 48.764h7.175a19.9 19.9 0 0 1 4.953.6 11.213 11.213 0 0 1 4.097 1.934 9.485 9.485 0 0 1 2.776 3.48 11.94 11.94 0 0 1 1.025 5.193 10.773 10.773 0 0 1-.999 4.77 10.193 10.193 0 0 1-2.682 3.463 11.78 11.78 0 0 1-3.897 2.127 14.808 14.808 0 0 1-4.627.727h-7.821V48.764Zm4.783 17.756h2.482a13.088 13.088 0 0 0 3.083-.346 6.541 6.541 0 0 0 2.471-1.149 5.526 5.526 0 0 0 1.643-2.109c.424-1.01.627-2.1.596-3.196a6.43 6.43 0 0 0-.596-2.85 5.693 5.693 0 0 0-1.614-1.997 7.056 7.056 0 0 0-2.373-1.182 10.355 10.355 0 0 0-2.872-.393h-2.82V66.52ZM322.919 48.764h8.08c.95 0 1.898.069 2.839.203a7.66 7.66 0 0 1 2.544.822c.75.403 1.384.993 1.839 1.713.509.89.753 1.907.705 2.93a4.727 4.727 0 0 1-1.028 3.132 5.619 5.619 0 0 1-2.715 1.778v.065a6.027 6.027 0 0 1 1.948.611c.568.294 1.078.69 1.504 1.167.424.485.752 1.045.967 1.651.227.648.341 1.329.338 2.015a5.475 5.475 0 0 1-.727 2.945 5.863 5.863 0 0 1-1.901 1.906 8.31 8.31 0 0 1-2.624 1.036c-.955.21-1.93.316-2.907.317h-8.862V48.764Zm4.784 8.909h3.463c.367 0 .733-.04 1.091-.124.344-.078.671-.217.967-.41.289-.192.526-.452.69-.757a2.28 2.28 0 0 0 .258-1.131 2.114 2.114 0 0 0-.287-1.15 2.074 2.074 0 0 0-.752-.708 3.518 3.518 0 0 0-1.043-.364 6.189 6.189 0 0 0-1.134-.109h-3.272l.019 4.753Zm0 9.225h4.292a4.91 4.91 0 0 0 1.119-.127 2.9 2.9 0 0 0 1.029-.44 2.46 2.46 0 0 0 .752-.818c.204-.377.304-.801.291-1.23a1.982 1.982 0 0 0-.385-1.272 2.409 2.409 0 0 0-.967-.727 4.754 4.754 0 0 0-1.254-.346 9.346 9.346 0 0 0-1.257-.094h-3.635l.015 5.054ZM273.721 62.262c1.265 0 2.29-1.053 2.29-2.353 0-1.3-1.025-2.353-2.29-2.353-1.264 0-2.289 1.054-2.289 2.353 0 1.3 1.025 2.353 2.289 2.353ZM247.254 48.764h3.958l9.45 22.29h-5.401l-1.871-4.727h-8.433l-1.817 4.728h-5.27l9.384-22.291Zm1.843 6.483-2.639 6.928h5.307l-2.668-6.928Z" fill="#212120"/></svg>